<svg xmlns="http://www.w3.org/2000/svg" width="540" height="540" viewBox="0 0 540 540" version="1.1">
	<path d="M 0 270.002 L 0 540.004 270.250 539.752 L 540.500 539.500 540.752 269.750 L 541.004 0 270.502 0 L 0 0 0 270.002 M 0.493 270.500 C 0.493 419, 0.608 479.899, 0.750 405.831 C 0.891 331.762, 0.891 210.262, 0.750 135.831 C 0.609 61.399, 0.493 122, 0.493 270.500 M 192.500 121.672 C 142.261 129.813, 113.525 160.078, 116.406 201.815 C 117.598 219.075, 124.552 235.639, 135.848 248.121 C 146.719 260.134, 160.578 267.666, 179 271.572 C 199.605 275.942, 236.075 272.260, 259.015 263.494 L 266 260.825 266 243.063 C 266 233.295, 266.291 221.859, 266.647 217.651 L 267.293 210 257.313 210 C 251.824 210, 247.074 210.259, 246.758 210.575 C 246.442 210.892, 246.614 212.579, 247.141 214.325 C 247.669 216.071, 248.361 222.450, 248.680 228.500 C 249.338 240.997, 248.069 249.118, 244.668 254.164 C 240.483 260.375, 226.837 265.012, 212.807 264.992 C 189.169 264.959, 166.019 252.336, 152.613 232.169 C 145.275 221.132, 142.864 213.511, 142.279 199.500 C 141.700 185.644, 142.693 179.098, 147.009 168.319 C 154.149 150.487, 165.638 139.532, 184.700 132.378 C 193.906 128.922, 212.347 127.944, 221.934 130.403 C 229.151 132.254, 238.050 136.002, 245.459 140.311 L 250.419 143.195 258.709 139.010 C 267.187 134.731, 268.325 133.634, 265.250 132.704 C 264.288 132.414, 259.675 130.813, 255 129.148 C 240.428 123.959, 228.246 121.840, 211 121.496 C 202.475 121.325, 194.150 121.405, 192.500 121.672 M 349.500 132.162 C 343.450 132.647, 333.853 132.921, 328.173 132.772 L 317.846 132.500 318.398 135.250 C 319.966 143.059, 321.205 184.496, 321.344 233.750 C 321.430 264.137, 321.881 289, 322.347 289 C 322.813 289, 327.901 287.762, 333.653 286.250 L 344.111 283.500 343.546 275 C 343.235 270.325, 342.873 256, 342.740 243.167 L 342.500 219.835 358 219.530 C 389.029 218.920, 406.917 212.246, 416.955 197.531 C 424.587 186.344, 426.609 171.156, 422.068 159.125 C 418.724 150.262, 411.028 142.112, 401.609 137.456 C 389.402 131.423, 375.886 130.050, 349.500 132.162 M 342.174 140.716 C 340.459 141.043, 340.029 141.598, 340.537 142.830 C 340.917 143.748, 341.456 158.900, 341.735 176.500 C 342.037 195.549, 342.648 209.006, 343.244 209.750 C 344.728 211.603, 363.506 211.361, 372.303 209.375 C 391.242 205.100, 402.591 193.358, 403.780 176.808 C 404.164 171.457, 403.783 168.760, 401.880 163.352 C 397.586 151.148, 388.083 143.860, 372.647 140.933 C 367.780 140.010, 346.667 139.859, 342.174 140.716 M 40.594 326.952 C 27.664 332.153, 22.597 344.779, 28.603 356.832 C 31.385 362.414, 35.409 366.024, 40.899 367.862 C 45.749 369.486, 58.734 369.268, 64.818 367.461 L 70 365.923 70 358.461 L 70 351 67.250 350.999 C 64.555 350.997, 64.507 351.103, 64.830 356.289 C 65.088 360.419, 64.724 362.120, 63.169 364.040 C 61.427 366.191, 60.370 366.500, 54.760 366.500 C 49.359 366.500, 47.566 366.020, 43.434 363.465 C 36.240 359.017, 33.846 354.324, 34.223 345.407 C 34.477 339.397, 34.962 337.739, 37.395 334.548 C 42.875 327.364, 52.038 325.240, 60.974 329.084 C 65.073 330.848, 66.178 330.975, 68.159 329.911 L 70.500 328.654 67 327.163 C 65.075 326.343, 59.451 325.516, 54.500 325.325 C 47.288 325.047, 44.525 325.370, 40.594 326.952 M 291.124 325.733 L 287.748 326.146 288.374 330.712 C 288.718 333.224, 289 343.013, 289 352.466 L 289 369.654 292 369.213 L 295 368.773 295 359.387 L 295 350 300.750 349.978 C 304.220 349.965, 308.159 349.203, 310.684 348.057 C 320.580 343.564, 320.389 330.567, 310.364 326.379 C 307.265 325.084, 298.767 324.798, 291.124 325.733 M 294.848 337.749 C 295.039 343.112, 295.348 347.659, 295.534 347.853 C 295.720 348.047, 298.240 347.880, 301.134 347.482 C 311.338 346.078, 315.518 337.364, 309.077 330.923 C 306.515 328.361, 305.433 328, 300.327 327.999 L 294.500 327.998 294.848 337.749 M 108.999 353.750 L 109 369 111.542 369 L 114.083 369 113.392 361.367 C 112.525 351.803, 113.427 351.856, 120.909 361.806 C 125.457 367.854, 126.783 369, 129.239 369 L 132.159 369 126.108 361.750 C 120.097 354.549, 120.072 354.493, 122.438 353.487 C 126.699 351.674, 129 348.862, 129 345.467 C 129 340.770, 126.834 339.568, 117.349 339 L 108.998 338.500 108.999 353.750 M 136.500 353.500 L 136.500 369 145.833 369 C 152.856 369, 155.063 368.690, 154.750 367.750 C 154.456 366.869, 152.364 366.601, 147.667 366.841 L 141 367.182 141 352.591 C 141 338.126, 140.981 338, 138.750 338 C 136.513 338, 136.500 338.093, 136.500 353.500 M 216.942 338.667 C 216.909 339.125, 216.929 344.450, 216.986 350.500 L 217.089 361.500 205.779 350.250 C 199.558 344.063, 194.241 339, 193.962 339 C 193.684 339, 193.354 345.750, 193.230 354 C 193.035 367.005, 193.211 369, 194.561 369 C 195.866 369, 196.097 367.507, 195.995 359.750 C 195.927 354.663, 195.901 349.608, 195.936 348.517 C 195.983 347.050, 198.853 349.378, 206.967 357.467 C 212.999 363.480, 218.124 368.197, 218.357 367.950 C 218.589 367.702, 218.942 361.014, 219.140 353.087 C 219.412 342.186, 219.195 338.572, 218.250 338.254 C 217.563 338.023, 216.974 338.208, 216.942 338.667 M 225.799 353.501 L 225.500 369.003 234.102 369.001 C 241.375 369, 243.215 368.652, 246.010 366.750 C 251.721 362.863, 253.504 359.563, 253.465 352.951 C 253.403 342.303, 247.891 338.004, 234.299 338.002 L 226.098 338 225.799 353.501 M 322 353.500 C 322 368.333, 322.086 369, 324 369 C 325.822 369, 326 368.333, 326 361.500 L 326 354 334.132 354 L 342.263 354 341.782 361.500 C 341.311 368.842, 341.350 369, 343.650 369 L 346 369 346 353.430 L 346 337.861 343.750 338.180 C 341.653 338.478, 341.522 338.918, 341.825 344.669 L 342.150 350.837 336.825 351.334 C 333.896 351.608, 330.262 351.757, 328.750 351.666 C 326.038 351.502, 326 351.407, 326 344.750 C 326 338.667, 325.802 338, 324 338 C 322.086 338, 322 338.667, 322 353.500 M 354 353.500 L 354 369 362 369 C 371.144 369, 372.931 367.253, 364.250 366.800 L 358.500 366.500 358.202 360.250 L 357.905 354 363.952 354 C 367.317 354, 370 353.556, 370 353 C 370 352.444, 367.333 352, 364 352 L 358 352 358 345.944 L 358 339.887 363.646 340.194 C 367.495 340.403, 369.430 340.102, 369.729 339.250 C 370.056 338.317, 368.117 338, 362.083 338 L 354 338 354 353.500 M 409.923 340.923 C 406.556 344.290, 406.038 348.843, 408.750 351.231 C 409.712 352.079, 412.863 353.956, 415.750 355.403 C 418.637 356.850, 421.034 358.364, 421.077 358.767 C 421.119 359.170, 421.299 360.252, 421.476 361.170 C 422.518 366.550, 413.905 369.139, 409.314 364.826 L 407 362.651 407 364.850 C 407 369.804, 418.635 370.288, 422.748 365.506 C 425.429 362.390, 425.744 356.865, 423.354 354.872 C 422.449 354.118, 419.411 352.375, 416.604 351 C 412.497 348.988, 411.437 347.951, 411.178 345.690 C 410.603 340.676, 414.781 338.136, 419.540 340.605 C 422.792 342.292, 425.118 341.290, 422.460 339.347 C 419.128 336.911, 413.189 337.657, 409.923 340.923 M 483.942 338.667 C 483.909 339.125, 483.929 344.450, 483.986 350.500 L 484.089 361.500 472.779 350.250 C 466.558 344.063, 461.161 339, 460.784 339 C 460.408 339, 459.965 345.751, 459.800 354.001 C 459.527 367.661, 459.654 369.003, 461.227 369.001 C 462.795 369, 462.896 367.995, 462.324 358 C 461.969 351.799, 462.081 347, 462.581 347 C 463.068 347, 468.297 351.815, 474.200 357.700 C 480.104 363.585, 485.151 368.182, 485.418 367.916 C 486.495 366.839, 486.197 338.566, 485.105 338.202 C 484.497 337.999, 483.974 338.208, 483.942 338.667 M 491 339.586 C 491 340.792, 491.898 341.118, 494.750 340.946 C 496.813 340.822, 499.063 340.783, 499.750 340.860 C 500.684 340.965, 501 344.541, 501 355 C 501 368.268, 501.103 369, 502.973 369 C 504.830 369, 504.961 368.174, 505.223 354.782 L 505.500 340.565 510.250 340.858 C 514.031 341.091, 515 340.830, 515 339.576 C 515 338.229, 513.256 338, 503 338 C 492.711 338, 491 338.226, 491 339.586 M 81.632 353.930 C 75.189 367.068, 74.462 369.073, 76.237 368.807 C 77.681 368.591, 78.879 366.944, 80.279 363.250 L 82.268 358 88.500 358 L 94.732 358 96.720 363.250 C 98.342 367.531, 99.190 368.558, 101.319 368.813 C 103.895 369.122, 103.838 368.934, 96.879 354.313 C 93.001 346.166, 89.660 339.330, 89.453 339.122 C 89.247 338.915, 85.727 345.578, 81.632 353.930 M 165.948 353.609 C 162.127 361.644, 159 368.394, 159 368.609 C 159 368.824, 159.807 369, 160.793 369 C 162.073 369, 163.121 367.426, 164.455 363.500 L 166.325 358 172.478 358 L 178.632 358 180.912 363.500 C 182.802 368.061, 183.612 369, 185.655 369 C 187.010 369, 187.932 368.663, 187.705 368.250 C 187.207 367.346, 183.067 358.486, 177.892 347.250 C 175.802 342.712, 173.823 339, 173.494 339 C 173.165 339, 169.770 345.574, 165.948 353.609 M 381.267 354.111 C 374.841 367.456, 374.271 369.099, 376.161 368.817 C 377.695 368.589, 378.845 367.034, 380.279 363.250 L 382.268 358 388.391 358 L 394.514 358 396.536 363.250 C 398.199 367.568, 399.032 368.555, 401.226 368.811 C 403.882 369.121, 403.861 369.053, 396.734 354.061 C 392.796 345.778, 389.332 339.019, 389.037 339.043 C 388.742 339.067, 385.245 345.847, 381.267 354.111 M 438.049 344.250 C 436.716 347.137, 433.439 353.922, 430.766 359.326 C 426.293 368.369, 426.078 369.126, 428.071 368.826 C 429.656 368.587, 430.762 367.083, 432.204 363.205 L 434.174 357.909 440.337 358.205 L 446.500 358.500 448.500 363.739 C 450.242 368.302, 450.856 368.979, 453.260 368.989 L 456.020 369 451.673 360.250 C 449.283 355.438, 446.049 348.688, 444.488 345.250 C 442.926 341.813, 441.384 339, 441.060 339 C 440.737 339, 439.382 341.363, 438.049 344.250 M 113.196 345.614 L 113.500 351.500 117.348 351.816 C 121.764 352.179, 125 349.946, 125 346.536 C 125 342.803, 122.686 340.832, 117.635 340.262 L 112.892 339.728 113.196 345.614 M 230.168 352.453 C 230.388 360.684, 230.924 365.328, 231.750 366.153 C 233.427 367.826, 239.260 367.734, 242.533 365.983 C 245.874 364.194, 249 358.164, 249 353.508 C 249 344.831, 243.821 340, 234.517 340 L 229.837 340 230.168 352.453 M 170.552 349.117 C 169.578 351.528, 168.557 354.063, 168.283 354.750 C 167.929 355.641, 169.109 356, 172.393 356 C 177.722 356, 177.911 355.415, 174.617 349.117 L 172.324 344.734 170.552 349.117 M 86.020 349.960 C 84.909 352.138, 84 354.388, 84 354.960 C 84 355.532, 86.025 356, 88.500 356 C 90.975 356, 93 355.812, 93 355.583 C 93 354.581, 89.021 346, 88.556 346 C 88.272 346, 87.132 347.782, 86.020 349.960 M 386.125 349.755 C 384.956 352.046, 384 354.388, 384 354.960 C 384 355.532, 386.025 356, 388.500 356 C 390.975 356, 392.980 355.663, 392.955 355.250 C 392.930 354.837, 391.861 352.495, 390.580 350.045 L 388.250 345.590 386.125 349.755 M 437.609 350.020 C 435.334 355.706, 435.476 356, 440.500 356 C 442.975 356, 445 355.787, 445 355.527 C 445 354.366, 440.530 346, 439.909 346 C 439.529 346, 438.493 347.809, 437.609 350.020 M 229.500 401.502 C 229.500 408.991, 229.843 412.001, 230.698 412.001 C 231.434 412, 232.012 410.015, 232.198 406.853 C 232.517 401.421, 234.317 399.140, 237.364 400.309 C 238.606 400.786, 239 402.270, 239 406.469 C 239 410.719, 239.347 412, 240.500 412 C 241.633 412, 242 410.778, 242 407 C 242 400.485, 239.576 397.688, 235.054 398.984 L 232 399.860 232 395.430 C 232 392.552, 231.562 391.001, 230.750 391.002 C 229.829 391.003, 229.500 393.771, 229.500 401.502 M 292.216 401.750 C 292.587 415.789, 294.436 415.604, 294.686 401.503 C 294.840 392.844, 294.615 391, 293.403 391 C 292.182 391, 291.981 392.829, 292.216 401.750 M 316 401.559 C 316 407.773, 316.381 411.883, 316.925 411.546 C 317.434 411.232, 319.009 411.503, 320.425 412.148 C 328.053 415.624, 333.524 404.010, 326.443 399.371 C 324.423 398.047, 323.426 397.940, 321.459 398.837 C 319.046 399.936, 319 399.873, 319 395.479 C 319 392.164, 318.610 391, 317.500 391 C 316.261 391, 316 392.840, 316 401.559 M 265 396.917 C 265 397.971, 264.438 399.060, 263.750 399.338 C 262.750 399.741, 262.750 399.858, 263.750 399.921 C 264.600 399.975, 265 401.887, 265 405.893 C 265 410.344, 265.387 411.935, 266.582 412.393 C 269.123 413.368, 270.660 413.033, 268.750 411.920 C 267.426 411.149, 267 409.589, 267 405.520 C 267 400.735, 267.249 400.091, 269.250 399.706 L 271.500 399.272 269.250 399.136 C 267.712 399.043, 267 398.367, 267 397 C 267 395.900, 266.550 395, 266 395 C 265.450 395, 265 395.863, 265 396.917 M 217.681 398.653 C 217.322 399.011, 215.672 399.267, 214.014 399.219 L 211 399.134 211 409.567 C 211 418.174, 211.263 420, 212.500 420 C 213.613 420, 214 418.829, 214 415.465 C 214 411.255, 214.142 411.006, 215.979 411.989 C 218.533 413.356, 222.780 412.280, 224.026 409.951 C 225.871 406.505, 225.158 402.270, 222.365 400.073 C 219.560 397.866, 218.722 397.612, 217.681 398.653 M 250.028 399.113 C 246.937 400.347, 246.035 401.741, 246.015 405.316 C 245.993 409.432, 247.590 411.751, 250.956 412.490 C 259.699 414.411, 264.524 402.788, 256.395 399.392 C 254.563 398.626, 252.937 398.029, 252.782 398.063 C 252.627 398.098, 251.388 398.571, 250.028 399.113 M 277.028 399.112 C 273.797 400.403, 273.034 401.737, 273.015 406.128 C 272.996 410.662, 275.038 412.455, 280.224 412.455 C 284.900 412.455, 287 410.262, 287 405.380 C 287 402.342, 284.910 399, 283.010 399 C 282.545 399, 281.564 398.803, 280.832 398.563 C 280.099 398.322, 278.388 398.569, 277.028 399.112 M 302.467 399.401 C 301.217 400.314, 301.543 400.521, 304.216 400.512 C 306.837 400.502, 307.500 400.904, 307.500 402.500 C 307.500 403.874, 306.718 404.608, 305 404.846 C 301.584 405.318, 300 406.810, 300 409.555 C 300 412.268, 303.019 413.596, 305.801 412.107 C 306.832 411.555, 308.537 411.328, 309.588 411.603 C 311.323 412.057, 311.467 411.613, 311.147 406.802 C 310.953 403.886, 310.377 400.987, 309.867 400.361 C 308.490 398.670, 304.223 398.117, 302.467 399.401 M 250.571 400.571 C 247.075 404.068, 248.830 412, 253.099 412 C 257.807 412, 259.327 402.316, 254.984 399.992 C 252.572 398.701, 252.423 398.720, 250.571 400.571 M 276.976 401.024 C 274.778 403.222, 274.561 404.716, 275.923 408.299 C 277.588 412.678, 282.376 412.773, 284.016 408.459 C 286.224 402.650, 280.936 397.064, 276.976 401.024 M 215.200 401.200 C 212.563 403.837, 214.679 412, 218 412 C 219.907 412, 222 408.666, 222 405.629 C 222 402.107, 220.502 400, 218 400 C 217.120 400, 215.860 400.540, 215.200 401.200 M 319.429 402.468 C 317.552 405.332, 318.493 409.669, 321.372 411.429 C 322.773 412.285, 323.514 412.026, 325.063 410.139 C 327.222 407.508, 327.516 404.833, 325.965 401.934 C 324.532 399.256, 321.364 399.515, 319.429 402.468 M 303 407.500 C 302.015 408.686, 302.012 409.309, 302.983 410.479 C 304.596 412.423, 308 410.717, 308 407.965 C 308 405.593, 304.828 405.298, 303 407.500" stroke="none" fill="black" fill-rule="evenodd"/>
</svg>